<svg xmlns="http://www.w3.org/2000/svg" viewBox="0 0 512 512" role="img" aria-labelledby="title desc">
  <title id="title">Dusori inverted-black animated app icon</title>
  <desc id="desc">On a charcoal tile, the ivory Dusori ensō surrounds a marigold rangoli that revolves before a vermilion katana crosses its center and settles.</desc>
  <rect width="512" height="512" rx="115" fill="#14100d"/>
  <g transform="translate(92 90) scale(5.125)">
    <path d="M55.77 26.51C57.03 31.96 58.05 38.06 55.43 43.43 52.81 48.8 48.57 53.28 43.11 55.83 37.65 58.38 31.48 59.05 25.62 57.59 19.76 56.13 14.65 52.61 11.03 47.8 7.41 42.99 5.8 37.05 6.01 31.09 6.22 25.13 8.71 19.57 12.58 15.12 16.45 10.67 21.8 7.86 27.56 6.84 33.32 5.82 38.85 8.28 43.67 10.95 44.92 11.64 43.88 13.51 42.63 12.82 38.24 10.38 33.06 11.05 28.45 11.86 23.84 12.67 19.75 15.2 16.7 18.7 13.65 22.2 12.18 26.72 12.02 31.3 11.86 35.88 13.52 40.27 16.24 43.88 18.96 47.49 22.89 49.95 27.25 51.04 31.61 52.13 36.24 51.77 40.33 49.86 44.42 47.95 47.92 44.84 49.92 40.74 51.92 36.64 54.16 31.96 53.05 27.14 52.63 25.33 55.35 24.7 55.77 26.51Z" fill="#f7f1e8"/>
    <g class="readme-chakra" fill="none" stroke="#c9862e" opacity=".9">
      <circle cx="32" cy="32" r="7.6" stroke-width=".2"/>
      <circle cx="32" cy="32" r="5.2" stroke-width=".34"/>
      <circle cx="32" cy="32" r="1.9" stroke-width=".3"/>
      <path d="M32 24.4V39.6M24.4 32H39.6M26.6 26.6 37.4 37.4M37.4 26.6 26.6 37.4" stroke-width=".3"/>
      <path d="M36.4 32A2.2 2.2 0 0 1 35.11 35.11 2.2 2.2 0 0 1 32 36.4 2.2 2.2 0 0 1 28.89 35.11 2.2 2.2 0 0 1 27.6 32 2.2 2.2 0 0 1 28.89 28.89 2.2 2.2 0 0 1 32 27.6 2.2 2.2 0 0 1 35.11 28.89 2.2 2.2 0 0 1 36.4 32" stroke-width=".28"/>
      <path d="M32 29.6 34.4 32 32 34.4 29.6 32Z" stroke-width=".26"/>
      <circle cx="32" cy="32" r="6.8" stroke-width=".22" stroke-dasharray="1.1 2.3" opacity=".7"/>
      <g fill="#c9862e" stroke="none">
        <circle cx="27.83" cy="27.83" r=".32"/><circle cx="36.17" cy="36.17" r=".32"/>
        <circle cx="36.17" cy="27.83" r=".32"/><circle cx="27.83" cy="36.17" r=".32"/>
        <circle cx="37.4" cy="34.24" r=".22"/><circle cx="34.24" cy="37.4" r=".22"/>
        <circle cx="29.76" cy="37.4" r=".22"/><circle cx="26.6" cy="34.24" r=".22"/>
        <circle cx="26.6" cy="29.76" r=".22"/><circle cx="29.76" cy="26.6" r=".22"/>
        <circle cx="34.24" cy="26.6" r=".22"/><circle cx="37.4" cy="29.76" r=".22"/>
      </g>
      <circle cx="32" cy="32" r=".85" fill="#c9862e" stroke="none"/>
    </g>
    <g class="readme-blade">
      <g transform="translate(8.7 -6.8) rotate(142 32 32)">
        <path d="M7.1 30.9H13.8V33.1H7.1Q5.75 32 7.1 30.9Z" fill="#f7f1e8"/>
        <path d="M9.3 31.1 10.05 32 9.3 32.9 8.55 32Z" fill="#14100d"/>
        <path d="M11.7 31.1 12.45 32 11.7 32.9 10.95 32Z" fill="#14100d"/>
        <ellipse cx="14.8" cy="32" rx="1.05" ry="3.35" fill="#f7f1e8"/>
        <path d="M15.75 30.95H17.2V33.05H15.75Z" fill="#f7f1e8"/>
        <path d="M17.2 30.95H55.9L58.2 31.3 55.5 32.3 17.2 33.05Z" fill="#cb4832"/>
        <path d="M18.3 31.55H53.2" fill="none" stroke="#14100d" stroke-width=".5" stroke-linecap="round"/>
      </g>
    </g>
  </g>
  <style>
    .readme-chakra{animation:chakra-revolve 1.65s cubic-bezier(.65,0,.35,1) both;transform-box:fill-box;transform-origin:center}
    .readme-blade{animation:blade-strike .62s cubic-bezier(.7,0,.84,0) .82s both;transform-box:fill-box;transform-origin:center}
    @keyframes chakra-revolve{
      from{opacity:.45;transform:rotate(0) scale(.88)}
      to{opacity:1;transform:rotate(360deg) scale(1)}
    }
    @keyframes blade-strike{
      from{opacity:0;transform:translate(18px,-14px)}
      to{opacity:1;transform:none}
    }
    @media (prefers-reduced-motion:reduce){.readme-chakra,.readme-blade{animation:none;opacity:1;transform:none}}
  </style>
</svg>
