<svg xmlns="http://www.w3.org/2000/svg" viewBox="0 0 512 512"><rect width="512" height="512" rx="115" fill="#f7f1e8"></rect><g transform="translate(92 90) scale(5.125)"><path d="M55.77 26.51 C57.03 31.96 58.05 38.06 55.43 43.43 C52.81 48.8 48.57 53.28 43.11 55.83 C37.65 58.38 31.48 59.05 25.62 57.59 C19.76 56.13 14.65 52.61 11.03 47.8 C7.41 42.99 5.8 37.05 6.01 31.09 C6.22 25.13 8.71 19.57 12.58 15.12 C16.45 10.67 21.8 7.86 27.56 6.84 C33.32 5.82 38.85 8.28 43.67 10.95 C44.92 11.64 43.88 13.51 42.63 12.82 C38.24 10.38 33.06 11.05 28.45 11.86 C23.84 12.67 19.75 15.2 16.7 18.7 C13.65 22.2 12.18 26.72 12.02 31.3 C11.86 35.88 13.52 40.27 16.24 43.88 C18.96 47.49 22.89 49.95 27.25 51.04 C31.61 52.13 36.24 51.77 40.33 49.86 C44.42 47.95 47.92 44.84 49.92 40.74 C51.92 36.64 54.16 31.96 53.05 27.14 C52.63 25.33 55.35 24.7 55.77 26.51Z" fill="#1a1511"></path><g fill="none" stroke="#c9862e" opacity="0.85"><circle cx="32" cy="32" r="5.2" stroke-width="0.34"></circle><circle cx="32" cy="32" r="1.9" stroke-width="0.3"></circle><path d="M32 26.8 L32 37.2 M26.8 32 L37.2 32 M28.32 28.32 L35.68 35.68 M35.68 28.32 L28.32 35.68" stroke-width="0.3"></path><path d="M36.4 32 A2.2 2.2 0 0 1 35.11 35.11 A2.2 2.2 0 0 1 32 36.4 A2.2 2.2 0 0 1 28.89 35.11 A2.2 2.2 0 0 1 27.6 32 A2.2 2.2 0 0 1 28.89 28.89 A2.2 2.2 0 0 1 32 27.6 A2.2 2.2 0 0 1 35.11 28.89 A2.2 2.2 0 0 1 36.4 32" stroke-width="0.28"></path><path d="M32 29.6 L34.4 32 L32 34.4 L29.6 32 Z" stroke-width="0.26"></path><circle cx="32" cy="32" r="6.8" stroke-width="0.22" stroke-dasharray="1.1 2.3" opacity="0.7"></circle><circle cx="32" cy="32" r="7.6" stroke-width="0.16" opacity="0.4"></circle></g><g fill="#c9862e"><circle cx="27.83" cy="27.83" r="0.32"></circle><circle cx="36.17" cy="36.17" r="0.32"></circle><circle cx="36.17" cy="27.83" r="0.32"></circle><circle cx="27.83" cy="36.17" r="0.32"></circle><circle cx="37.4" cy="34.24" r="0.22"></circle><circle cx="34.24" cy="37.4" r="0.22"></circle><circle cx="29.76" cy="37.4" r="0.22"></circle><circle cx="26.6" cy="34.24" r="0.22"></circle><circle cx="26.6" cy="29.76" r="0.22"></circle><circle cx="29.76" cy="26.6" r="0.22"></circle><circle cx="34.24" cy="26.6" r="0.22"></circle><circle cx="37.4" cy="29.76" r="0.22"></circle></g><g fill="none" stroke="#c9862e" stroke-width="0.26" stroke-linejoin="round" opacity="0.9"><path d="M32 24.75 L32.6 25.4 L32 26.05 L31.4 25.4 Z"></path><path d="M39.25 32 L38.6 32.6 L37.95 32 L38.6 31.4 Z"></path><path d="M32 39.25 L32.6 38.6 L32 37.95 L31.4 38.6 Z"></path><path d="M24.75 32 L25.4 32.6 L26.05 32 L25.4 31.4 Z"></path></g><circle cx="32" cy="32" r="0.85" fill="#c9862e"></circle><g transform="translate(8.7 -6.8) rotate(142 32 32)"><path d="M7.1 30.9 L13.8 30.9 L13.8 33.1 L7.1 33.1 Q5.75 32 7.1 30.9 Z" fill="#1a1511"></path><path d="M9.3 31.1 L10.05 32 L9.3 32.9 L8.55 32 Z" fill="#f7f1e8"></path><path d="M11.7 31.1 L12.45 32 L11.7 32.9 L10.95 32 Z" fill="#f7f1e8"></path><ellipse cx="14.8" cy="32" rx="1.05" ry="3.35" fill="#1a1511"></ellipse><path d="M15.75 30.95 L17.2 30.95 L17.2 33.05 L15.75 33.05 Z" fill="#1a1511"></path><path d="M17.2 30.95 L55.9 30.95 L58.2 31.3 L55.5 32.3 L17.2 33.05 Z" fill="#cb4832"></path><path d="M18.3 31.55 L53.2 31.55" fill="none" stroke="#f7f1e8" stroke-width="0.5" stroke-linecap="round"></path></g></g></svg>
