<svg xmlns="http://www.w3.org/2000/svg" width="720" height="520" viewBox="0 0 720 520" role="img" aria-labelledby="title desc">
  <title id="title">Umang Dhawan — technology consultant and open-source product builder</title>
  <desc id="desc">A mobile profile banner highlighting product delivery, quality engineering, cloud reliability, and applied AI.</desc>
  <defs>
    <linearGradient id="background" x1="24" y1="20" x2="690" y2="500" gradientUnits="userSpaceOnUse">
      <stop stop-color="#07111F"/>
      <stop offset="0.58" stop-color="#0B1B31"/>
      <stop offset="1" stop-color="#182846"/>
    </linearGradient>
    <linearGradient id="accent" x1="48" y1="0" x2="610" y2="0" gradientUnits="userSpaceOnUse">
      <stop stop-color="#61DAFB"/>
      <stop offset="0.52" stop-color="#8B9EFF"/>
      <stop offset="1" stop-color="#B98CFF"/>
    </linearGradient>
    <radialGradient id="glow" cx="0" cy="0" r="1" gradientTransform="translate(650 38) rotate(135) scale(430 360)" gradientUnits="userSpaceOnUse">
      <stop stop-color="#5E81FF" stop-opacity="0.32"/>
      <stop offset="1" stop-color="#5E81FF" stop-opacity="0"/>
    </radialGradient>
    <pattern id="grid" width="28" height="28" patternUnits="userSpaceOnUse">
      <path d="M28 0H0V28" fill="none" stroke="#C9D7F2" stroke-opacity="0.055"/>
    </pattern>
  </defs>

  <rect width="720" height="520" rx="28" fill="url(#background)"/>
  <rect width="720" height="520" rx="28" fill="url(#glow)"/>
  <rect width="720" height="520" rx="28" fill="url(#grid)"/>
  <rect x="0.75" y="0.75" width="718.5" height="518.5" rx="27.25" fill="none" stroke="#FFFFFF" stroke-opacity="0.12" stroke-width="1.5"/>

  <g font-family="Inter, -apple-system, BlinkMacSystemFont, 'Segoe UI', sans-serif">
    <circle cx="50" cy="55" r="6" fill="#61DAFB"/>
    <text x="68" y="62" fill="#AFC1DD" font-size="18" font-weight="650" letter-spacing="2">CHICAGO · BUILDING IN PUBLIC</text>

    <text x="46" y="145" fill="#FFFFFF" font-size="54" font-weight="760" letter-spacing="-1.6">UMANG DHAWAN</text>
    <text x="48" y="193" fill="url(#accent)" font-size="26" font-weight="650">Technology consultant · open-source builder</text>
    <text x="48" y="244" fill="#C0CEE1" font-size="22">I turn complex ideas into reliable systems that ship.</text>

    <path d="M48 288h624" stroke="#FFFFFF" stroke-opacity="0.12"/>

    <g font-size="18" font-weight="700" fill="#E5EEF9">
      <g transform="translate(48 326)">
        <rect width="296" height="64" rx="18" fill="#10263C" stroke="#61DAFB" stroke-opacity="0.38"/>
        <circle cx="32" cy="32" r="7" fill="#61DAFB"/>
        <text x="54" y="39">PRODUCT DELIVERY</text>
      </g>
      <g transform="translate(376 326)">
        <rect width="296" height="64" rx="18" fill="#14233E" stroke="#8B9EFF" stroke-opacity="0.4"/>
        <path d="M22 32l8 8 15-18" fill="none" stroke="#91A4FF" stroke-width="3.5" stroke-linecap="round" stroke-linejoin="round"/>
        <text x="58" y="39">QUALITY ENGINEERING</text>
      </g>
      <g transform="translate(48 414)">
        <rect width="296" height="64" rx="18" fill="#17213E" stroke="#A18CFF" stroke-opacity="0.4"/>
        <path d="M21 39h24M26 30h19M32 21h13" fill="none" stroke="#A997FF" stroke-width="3" stroke-linecap="round"/>
        <text x="58" y="39">CLOUD RELIABILITY</text>
      </g>
      <g transform="translate(376 414)">
        <rect width="296" height="64" rx="18" fill="#1A203E" stroke="#B98CFF" stroke-opacity="0.4"/>
        <path d="M32 18v28M18 32h28M22 22l20 20M42 22L22 42" fill="none" stroke="#C19BFF" stroke-width="2.6" stroke-linecap="round"/>
        <text x="58" y="39">APPLIED AI</text>
      </g>
    </g>
  </g>
</svg>
